# xmcd
#
# Track frame offsets:
#	150
#	18675
#	36302
#	50570
#	62645
#	79675
#	93357
#	106565
#	121732
#	136442
#
# Disc length: 2066 seconds
#
# Revision: 0
# Processed by: cddbd v1.4PL0 Copyright (c) Steve Scherf et al.
# Submitted via: dBpowerAMP V4.0
#
DISCID=7c08100a
DTITLE=Dierks Bentley - Don't Leave Me In Love
DYEAR=2001
DGENRE=Country
TTITLE0=Always Be Me
TTITLE1=Don't Leave Me In Love
TTITLE2=Midnight Radio
TTITLE3=Bartenders, Barstools, Barmaids
TTITLE4=Walking Papers
TTITLE5=Whiskey Tears
TTITLE6=Living Single
TTITLE7=Why Do You Love Me
TTITLE8=Not Through Loving You
TTITLE9=Home Is Where The Hurt Is
EXTD=
EXTT0=
EXTT1=
EXTT2=
EXTT3=
EXTT4=
EXTT5=
EXTT6=
EXTT7=
EXTT8=
EXTT9=
PLAYORDER=
